<svg class="style-scope yt-icon" fill="#FFF" display="block" pointer-events="none" style="height:100%;width:100%" focusable="false" viewBox="0 0 24 24" xmlns="http://www.w3.org/2000/svg">
<g class="style-scope yt-icon">
<path class="style-scope yt-icon" d="m16 4v4h4v-4h-4zm3 3h-2v-2h2v2zm-3 3v4h4v-4h-4zm3 3h-2v-2h2v2zm-9-9v4h4v-4h-4zm3 3h-2v-2h2v2zm-3 3v4h4v-4h-4zm3 3h-2v-2h2v2zm3 3v4h4v-4h-4zm3 3h-2v-2h2v2zm-9-3v4h4v-4h-4zm3 3h-2v-2h2v2zm-9-15v4h4v-4h-4zm3 3h-2v-2h2v2zm-3 3v4h4v-4h-4zm3 3h-2v-2h2v2zm-3 3v4h4v-4h-4zm3 3h-2v-2h2v2z"/>
</g>
</svg>