<svg class="style-scope yt-icon" fill="#FFF" display="block" pointer-events="none" style="height:100%;width:100%" focusable="false" viewBox="0 0 24 24" xmlns="http://www.w3.org/2000/svg">
<g class="style-scope yt-icon">
<path class="style-scope yt-icon" d="m9.8 9.8-3.83 8.23 8.23-3.83 3.83-8.23-8.23 3.83zm3.28 2.97c-0.21 0.29-0.51 0.48-0.86 0.54-0.07 0.01-0.15 0.02-0.22 0.02-0.28 0-0.54-0.08-0.77-0.25-0.29-0.21-0.48-0.51-0.54-0.86s0.02-0.71 0.23-0.99c0.21-0.29 0.51-0.48 0.86-0.54s0.7 0.02 0.99 0.23 0.48 0.51 0.54 0.86-0.02 0.7-0.23 0.99zm-1.08-9.77c4.96 0 9 4.04 9 9s-4.04 9-9 9-9-4.04-9-9 4.04-9 9-9m0-1c-5.52 0-10 4.48-10 10s4.48 10 10 10 10-4.48 10-10-4.48-10-10-10z"/>
</g>
</svg>
